<svg xmlns="http://www.w3.org/2000/svg" version="1.1" xmlns:xlink="http://www.w3.org/1999/xlink" xmlns:svgjs="http://svgjs.dev/svgjs" width="2000" height="2250" viewBox="0 0 2000 2250"><g transform="matrix(1,0,0,1,3.410605131648481e-13,0)"><svg viewBox="0 0 320 360" data-background-color="#010536" preserveAspectRatio="xMidYMid meet" height="2250" width="2000" xmlns="http://www.w3.org/2000/svg" xmlns:xlink="http://www.w3.org/1999/xlink"><g id="tight-bounds" transform="matrix(1,0,0,1,0,0)"><svg viewBox="0 0 320 360" height="360" width="320"><g><svg></svg></g><g><svg viewBox="0 0 320 360" height="360" width="320"><g><path d="M20.961 227.22l3.726 4.658-1.863-6.056c-0.466-2.795-3.726 0.466-1.863 1.398M25.153 224.425c1.397 2.329 2.795 4.658 2.795 6.987 0 3.261 2.795 4.658 5.123 5.589-3.261-3.726-5.124-13.974-7.918-12.576M204.017 26.929c7.918 0 15.371-0.932 23.756 0.931 20.495 5.124 37.729 15.371 49.374 29.811l32.606 52.169c1.397 13.042 4.192 27.482 3.726 43.319 3.261 0 2.795-4.658 6.521-5.59-3.726 9.316-5.59 20.961-6.521 34.469-2.329-7.453 0-18.632 0.466-24.687-3.261 5.124-5.124 1.397-5.124-0.932 0.466-3.726-1.397-3.261-2.795-4.658-5.124-4.658-8.384-9.782-12.11-17.7 2.329-6.055 2.795-14.905-4.658-19.563-2.329-1.397-5.124-3.726-6.521-7.453-1.863-5.124-5.124-11.179-4.193-19.097 0.466-2.329-6.987 5.124-11.179 1.863-18.166-12.576-36.332-27.016-58.224-39.127-11.645 0-20.029-4.192-24.221-9.316-3.726-4.658-0.932-10.713 4.658-11.179 3.261 0 6.987-0.932 9.782 0.932 0.466-1.863 2.329-4.192 4.657-4.192M157.904 16.215l0.932 0.466c4.658 0.932 6.987 7.453 12.11 5.124 0 3.261 0.466 6.521-0.466 8.85-1.397 3.726-5.59 3.726-8.85 3.726-31.208-1.863-49.374 11.179-68.471 22.358-5.124 3.261-10.713 5.59-14.906 9.782-20.029 18.632-41.921 35.866-47.045 70.335l-4.192 38.195c-0.466 4.192-5.124 8.384-4.192 13.508l3.26 22.824c-3.261-3.261-5.124 0.932-4.192 2.795 0.466 1.397 2.329 6.055 5.124 1.863 3.726 6.987 7.453 20.495 12.576 26.55 15.837 18.632 36.332 35.4 53.101 52.169 4.192-0.932 7.453-0.932 8.384-3.727 1.397 2.795-1.397 5.59-3.726 6.056 7.453 4.658 15.837 8.85 27.016 9.781 14.44 0.932 27.948 3.261 40.524 6.522 6.521-1.863 13.042-2.795 20.029-3.261 2.329 0 3.726-3.726 6.521-4.658l0.466-4.658c2.795 4.192 2.329-1.397 0.466-4.192 3.261 2.795 4.192 5.124 5.589 6.987 0-1.397 3.726-6.521 3.727-0.466l0.931-6.055c1.397-0.932 1.863 5.124 3.261 0.931 1.397-4.192 4.192-0.932 6.987-2.329-0.932 1.863-0.466 5.59 2.794 3.261l3.727-3.261c2.329 5.59 6.055 3.261 7.918 2.329 20.495-13.042 40.99-28.413 60.553-43.784l-0.466 6.055 2.329-7.453c2.329 2.329 4.192 0.466 5.124-0.931 2.795-4.658 6.521-9.316 12.577-13.508-7.453 20.029-16.303 35.866-27.482 48.908l-4.658 5.59c0 3.261-0.932 7.453-4.658 7.918-1.863 0.466-5.59-0.932-8.384 1.863-1.397 1.863 3.261 5.59-0.466 2.795-3.261-2.329-6.521 0-10.248 0.932-2.795 0.932 1.863 3.726 2.795 5.589 0.932 1.863 1.863 3.726 1.398 6.056l-5.124-5.59c-6.055 3.261-9.782 9.316-14.906 13.974-2.329 1.863-1.397 5.124-1.397 7.918-3.261 0-6.987-0.932-8.85 0.932-1.397 1.863-0.932 4.658-0.932 7.453-4.658-0.466-5.124-7.453-9.315-6.056-4.192 0.932-8.85 1.397-12.577 3.727 2.795 5.59-4.658 2.329-3.726 3.26-6.987-4.192-13.042-7.453-20.495-4.658-15.837-5.124-35.4-2.795-49.84-0.931 0-2.329 0.466-4.658-0.466-5.124-0.932 2.329-3.726 1.397-3.26 1.397-8.85-6.055-17.7-9.782-27.016-14.905-8.384 0.932-16.303-3.261-18.632-5.59-6.521-6.055-13.974-2.795-20.029-4.192-13.042-3.261-17.7-16.769-19.098-26.084-0.932-4.658-4.658-6.521-6.055-6.056-6.055-19.563-15.371-37.263-22.824-55.429-1.863-4.658-1.397-9.316-1.397-14.44 2.329 0.932 4.658 0.466 4.192-2.794-2.329-15.371-7.918-27.016-13.974-38.195 3.261-15.837 3.726-34.469 11.179-48.443 6.521-12.576 18.632-19.098 27.016-29.811 2.795-3.726 2.795-8.85 5.59-12.11 9.316-9.316 18.632-19.098 28.879-27.482 4.658-3.726 10.247 0 17.234-1.397 2.329-8.384 11.645-15.837 20.495-13.508 3.726 0.932 11.179-8.85 13.508-9.782 3.726-1.397 1.863 3.726 1.863 6.987 8.85-6.987 20.961-10.713 32.14-14.906" fill="#ead307" fill-rule="nonzero" stroke="none" stroke-width="1" stroke-linecap="butt" stroke-linejoin="miter" stroke-miterlimit="10" stroke-dasharray="" stroke-dashoffset="0" font-family="none" font-weight="none" font-size="none" text-anchor="none" style="mix-blend-mode: normal" data-fill-palette-color="tertiary"></path></g><g transform="matrix(1,0,0,1,64,142.55275281481292)"><svg viewBox="0 0 192 74.89449437037418" height="74.89449437037418" width="192"><g><svg viewBox="0 0 192 74.89449437037418" height="74.89449437037418" width="192"><g><svg viewBox="0 0 192 74.89449437037418" height="74.89449437037418" width="192"><g><svg viewBox="0 0 192 74.89449437037418" height="74.89449437037418" width="192"><g id="textblocktransform"><svg viewBox="0 0 192 74.89449437037418" height="74.89449437037418" width="192" id="textblock"><g><svg viewBox="0 0 192 42.45902565551247" height="42.45902565551247" width="192"><g transform="matrix(1,0,0,1,0,0)"><svg width="192" viewBox="1.85 -36.38912895616001 169.29 37.439128956160005" height="42.45902565551247" data-palette-color="#f3e004"><path d="M13.4-35.85Q18.15-35.85 21.23-33.98 24.3-32.1 26-30.4L26-30.4Q26.2-30.2 26.2-29.95L26.2-29.95Q26.2-29.8 26.08-29.58 25.95-29.35 25.9-29.25L25.9-29.25Q25.65-28.9 25.08-28.03 24.5-27.15 24.15-26.75L24.15-26.75Q24-26.55 23.83-26.33 23.65-26.1 23.53-26 23.4-25.9 23.15-25.9L23.15-25.9Q23.05-25.9 22.68-26.23 22.3-26.55 21.95-26.8L21.95-26.8Q19.95-28.55 18.05-29.8 16.15-31.05 14.4-31.05L14.4-31.05Q13-31.05 12.1-30.43 11.2-29.8 11.2-27.6L11.2-27.6Q11.2-25.45 12.8-24.25 14.4-23.05 17.05-21.95L17.05-21.95Q17.3-21.85 19.98-20.7 22.65-19.55 24.73-16.3 26.8-13.05 26.8-8.55L26.8-8.55Q26.8-3.75 23.2-1.35 19.6 1.05 13.25 1.05L13.25 1.05Q6.05 1.05 4.1-1.73 2.15-4.5 2.05-4.6L2.05-4.6Q1.85-4.85 1.85-5.1L1.85-5.1Q1.85-5.25 2.25-5.75L2.25-5.75Q2.9-6.65 4.15-7.9L4.15-7.9Q4.35-8.1 4.55-8.1L4.55-8.1Q4.8-8.1 5.1-7.73 5.4-7.35 5.6-7.15L5.6-7.15Q8.55-4.2 12.3-4.2L12.3-4.2Q14.2-4.2 15.6-4.93 17-5.65 17-7.65L17-7.65Q17-11.1 11.55-15L11.55-15Q10.65-15.6 9.85-16L9.85-16Q7.75-17.15 6.25-18.25 4.75-19.35 3.6-21.15 2.45-22.95 2.45-25.35L2.45-25.35Q2.45-28.35 4.33-30.75 6.2-33.15 8.83-34.5 11.45-35.85 13.4-35.85L13.4-35.85ZM57.3-1Q57.55-0.5 57.55-0.35L57.55-0.35Q57.55 0.05 56.65 0.05L56.65 0.05 53.05 0.05Q52.85 0.05 52.65-0.3 52.45-0.65 52.3-1 52.15-1.35 52.05-1.6L52.05-1.6Q51.8-2.1 51.12-3.9 50.45-5.7 50.1-6.75L50.1-6.75Q49.95-7.25 49.5-8.22 49.05-9.2 48.85-9.6L48.85-9.6Q48.65-10.2 48.47-10.4 48.3-10.6 47.95-10.6L47.95-10.6Q47.6-10.6 47.07-10.55 46.55-10.5 45.95-10.45L45.95-10.45Q45.55-10.35 43.45-10.35L43.45-10.35Q42-10.35 40.6-10.25L40.6-10.25Q40.15-10.2 39-10.2L39-10.2 36.35-10.25Q36.1-10.25 35.97-10.05 35.85-9.85 35.8-9.58 35.75-9.3 35.7-9.15L35.7-9.15 35.4-7.9Q35.25-7.2 35.02-6.28 34.8-5.35 34.65-4.55L34.65-4.55 34.1-2.4 33.7-0.95Q33.55-0.35 33.42-0.18 33.3 0 33.05 0L33.05 0 30.1 0Q29.85 0 29.85-0.2L29.85-0.2Q29.85-0.3 30.05-0.9L30.05-0.9Q30.45-1.85 30.75-2.8L30.75-2.8Q32.6-9 32.95-10.9L32.95-10.9Q33.4-13.4 34.8-17.35L34.8-17.35Q35.25-19.05 35.65-20.45L35.65-20.45Q35.8-21.15 36.1-22.15L36.1-22.15Q37.05-25.65 38-28.7L38-28.7 39.25-32.7Q39.65-34.25 40.25-35.9L40.25-35.9Q40.55-36.65 40.95-36.25L40.95-36.25Q41.25-36.05 41.4-35.55 41.55-35.05 41.6-34.85L41.6-34.85Q41.75-34.25 44.25-28.85L44.25-28.85Q45.25-26.8 46.4-23.5L46.4-23.5Q46.9-22.05 49.15-17.25L49.15-17.25Q50.3-14.9 50.65-14L50.65-14Q51.45-12.25 54.95-5.5L54.95-5.5 55.55-4.25Q56.7-1.7 57.3-1L57.3-1ZM44.2-17.5Q44.55-17.55 44.8-17.55 45.05-17.55 45.2-17.6 45.35-17.65 45.35-17.75L45.35-17.75Q45.35-17.85 45.2-18.15L45.2-18.15Q44.95-18.6 44.05-20.68 43.15-22.75 42.8-23.8L42.8-23.8Q42.3-25 42.02-25.8 41.75-26.6 41.6-26.9L41.6-26.9Q41.5-27.15 41.37-27.4 41.25-27.65 41.15-27.8 41.05-27.95 40.95-27.95L40.95-27.95Q40.8-27.95 40.62-27.2 40.45-26.45 40.35-26.05L40.35-26.05Q39.45-23.15 39.05-21.65L39.05-21.65Q38.85-20.9 38.47-19.83 38.1-18.75 37.95-18.35L37.95-18.35Q37.8-17.85 37.8-17.55L37.8-17.55Q37.8-17.25 38.25-17.25L38.25-17.25Q39.3-17.25 41.47-17.32 43.65-17.4 44.2-17.5L44.2-17.5ZM71.7-35.4Q75.09-35.4 76.87-34.25 78.65-33.1 79.34-32.13 80.05-31.15 80.25-30.95L80.25-30.95Q80.65-30.5 80.65-30L80.65-30Q80.65-29.4 80.2-28.95L80.2-28.95Q79.75-28.5 79.07-27.95 78.4-27.4 77.84-27L77.84-27Q77.59-26.85 77.4-26.85L77.4-26.85Q76.95-26.85 76.5-27.3L76.5-27.3Q76.4-27.4 75.05-28.98 73.7-30.55 71-30.55L71-30.55Q68.95-30.55 67.45-28.38 65.95-26.2 65.17-23.13 64.4-20.05 64.4-17.4L64.4-17.4Q64.4-14.65 65.2-11.55 66-8.45 67.77-6.25 69.55-4.05 72.25-4.05L72.25-4.05Q75.84-4.05 77.75-6.85L77.75-6.85Q78.55-8.15 78.8-9.7L78.8-9.7 77.34-9.7 75.09-9.75 70.05-9.8Q69.2-9.8 69.2-10.6L69.2-10.6 69.2-12.55Q69.2-13.05 69.34-13.18 69.5-13.3 69.75-13.3L69.75-13.3 72.05-13.3 82.3-13.55Q82.75-13.55 82.97-13.1 83.2-12.65 83.15-11.9L83.15-11.9Q83.15-10.15 82.5-7.38 81.84-4.6 79.3-1.98 76.75 0.65 71.7 0.65L71.7 0.65Q67.95 0.65 65.27-2.2 62.6-5.05 61.27-9.53 59.95-14 59.95-18.7L59.95-18.7Q59.95-23.1 61.57-26.95 63.2-30.8 65.92-33.1 68.65-35.4 71.7-35.4L71.7-35.4ZM113.14-1Q113.39-0.5 113.39-0.35L113.39-0.35Q113.39 0.05 112.49 0.05L112.49 0.05 108.89 0.05Q108.69 0.05 108.49-0.3 108.29-0.65 108.14-1 107.99-1.35 107.89-1.6L107.89-1.6Q107.64-2.1 106.97-3.9 106.29-5.7 105.94-6.75L105.94-6.75Q105.79-7.25 105.34-8.22 104.89-9.2 104.69-9.6L104.69-9.6Q104.49-10.2 104.32-10.4 104.14-10.6 103.79-10.6L103.79-10.6Q103.44-10.6 102.92-10.55 102.39-10.5 101.79-10.45L101.79-10.45Q101.39-10.35 99.29-10.35L99.29-10.35Q97.84-10.35 96.44-10.25L96.44-10.25Q95.99-10.2 94.84-10.2L94.84-10.2 92.19-10.25Q91.94-10.25 91.82-10.05 91.69-9.85 91.64-9.58 91.59-9.3 91.54-9.15L91.54-9.15 91.24-7.9Q91.09-7.2 90.87-6.28 90.64-5.35 90.49-4.55L90.49-4.55 89.94-2.4 89.54-0.95Q89.39-0.35 89.27-0.18 89.14 0 88.89 0L88.89 0 85.94 0Q85.69 0 85.69-0.2L85.69-0.2Q85.69-0.3 85.89-0.9L85.89-0.9Q86.29-1.85 86.59-2.8L86.59-2.8Q88.44-9 88.79-10.9L88.79-10.9Q89.24-13.4 90.64-17.35L90.64-17.35Q91.09-19.05 91.49-20.45L91.49-20.45Q91.64-21.15 91.94-22.15L91.94-22.15Q92.89-25.65 93.84-28.7L93.84-28.7 95.09-32.7Q95.49-34.25 96.09-35.9L96.09-35.9Q96.39-36.65 96.79-36.25L96.79-36.25Q97.09-36.05 97.24-35.55 97.39-35.05 97.44-34.85L97.44-34.85Q97.59-34.25 100.09-28.85L100.09-28.85Q101.09-26.8 102.24-23.5L102.24-23.5Q102.74-22.05 104.99-17.25L104.99-17.25Q106.14-14.9 106.49-14L106.49-14Q107.29-12.25 110.79-5.5L110.79-5.5 111.39-4.25Q112.54-1.7 113.14-1L113.14-1ZM100.04-17.5Q100.39-17.55 100.64-17.55 100.89-17.55 101.04-17.6 101.19-17.65 101.19-17.75L101.19-17.75Q101.19-17.85 101.04-18.15L101.04-18.15Q100.79-18.6 99.89-20.68 98.99-22.75 98.64-23.8L98.64-23.8Q98.14-25 97.87-25.8 97.59-26.6 97.44-26.9L97.44-26.9Q97.34-27.15 97.22-27.4 97.09-27.65 96.99-27.8 96.89-27.95 96.79-27.95L96.79-27.95Q96.64-27.95 96.47-27.2 96.29-26.45 96.19-26.05L96.19-26.05Q95.29-23.15 94.89-21.65L94.89-21.65Q94.69-20.9 94.32-19.83 93.94-18.75 93.79-18.35L93.79-18.35Q93.64-17.85 93.64-17.55L93.64-17.55Q93.64-17.25 94.09-17.25L94.09-17.25Q95.14-17.25 97.32-17.32 99.49-17.4 100.04-17.5L100.04-17.5ZM135.74-30.7Q138.69-28.1 139.64-24.53 140.59-20.95 140.59-16.65L140.59-16.65Q140.59-14.4 139.84-11.6 139.09-8.8 137.77-6.4 136.44-4 134.69-2.85L134.69-2.85Q132.29-1.3 128.74-0.68 125.19-0.05 123.14-0.05L123.14-0.05 118.04-0.05Q117.49-0.05 117.34-0.3 117.19-0.55 117.34-0.85L117.34-0.85Q117.39-1 117.39-1.25L117.39-1.25Q117.39-1.45 117.37-1.78 117.34-2.1 117.34-2.7L117.34-2.7Q117.34-4.35 117.29-5.95L117.29-5.95 117.19-15 117.24-25.05Q117.24-26.35 117.19-27.58 117.14-28.8 117.09-29.7L117.09-29.7 116.99-32.85Q117.04-34 117.14-34.45 117.24-34.9 117.54-34.9L117.54-34.9 117.69-34.9Q117.89-34.9 118.14-34.83 118.39-34.75 118.59-34.75L118.59-34.75Q118.99-34.75 119.57-34.8 120.14-34.85 120.74-34.85L120.74-34.85 122.69-34.8Q125.49-34.8 127.74-34.55L127.74-34.55Q127.94-34.55 129.07-34.45 130.19-34.35 131.97-33.4 133.74-32.45 135.74-30.7L135.74-30.7ZM125.59-1.95Q129.04-1.75 131.89-3.2L131.89-3.2Q134.64-4.6 136.44-7.85 138.24-11.1 138.24-16.65L138.24-16.65Q138.24-22.15 136.47-25.48 134.69-28.8 131.99-30.45L131.99-30.45Q129.24-32.1 125.74-32.15L125.74-32.15 125.54-27.6Q125.39-25.15 125.39-20.85L125.39-20.85Q125.39-20.45 125.54-16.4L125.54-16.4Q125.69-14.7 125.69-13.2L125.69-13.2 125.64-6.75Q125.59-5.25 125.59-1.95L125.59-1.95ZM170.89-1Q171.14-0.5 171.14-0.35L171.14-0.35Q171.14 0.05 170.24 0.05L170.24 0.05 166.64 0.05Q166.44 0.05 166.24-0.3 166.04-0.65 165.89-1 165.74-1.35 165.64-1.6L165.64-1.6Q165.39-2.1 164.71-3.9 164.04-5.7 163.69-6.75L163.69-6.75Q163.54-7.25 163.09-8.22 162.64-9.2 162.44-9.6L162.44-9.6Q162.24-10.2 162.06-10.4 161.89-10.6 161.54-10.6L161.54-10.6Q161.19-10.6 160.66-10.55 160.14-10.5 159.54-10.45L159.54-10.45Q159.14-10.35 157.04-10.35L157.04-10.35Q155.59-10.35 154.19-10.25L154.19-10.25Q153.74-10.2 152.59-10.2L152.59-10.2 149.94-10.25Q149.69-10.25 149.56-10.05 149.44-9.85 149.39-9.58 149.34-9.3 149.29-9.15L149.29-9.15 148.99-7.9Q148.84-7.2 148.61-6.28 148.39-5.35 148.24-4.55L148.24-4.55 147.69-2.4 147.29-0.95Q147.14-0.35 147.01-0.18 146.89 0 146.64 0L146.64 0 143.69 0Q143.44 0 143.44-0.2L143.44-0.2Q143.44-0.3 143.64-0.9L143.64-0.9Q144.04-1.85 144.34-2.8L144.34-2.8Q146.19-9 146.54-10.9L146.54-10.9Q146.99-13.4 148.39-17.35L148.39-17.35Q148.84-19.05 149.24-20.45L149.24-20.45Q149.39-21.15 149.69-22.15L149.69-22.15Q150.64-25.65 151.59-28.7L151.59-28.7 152.84-32.7Q153.24-34.25 153.84-35.9L153.84-35.9Q154.14-36.65 154.54-36.25L154.54-36.25Q154.84-36.05 154.99-35.55 155.14-35.05 155.19-34.85L155.19-34.85Q155.34-34.25 157.84-28.85L157.84-28.85Q158.84-26.8 159.99-23.5L159.99-23.5Q160.49-22.05 162.74-17.25L162.74-17.25Q163.89-14.9 164.24-14L164.24-14Q165.04-12.25 168.54-5.5L168.54-5.5 169.14-4.25Q170.29-1.7 170.89-1L170.89-1ZM157.79-17.5Q158.14-17.55 158.39-17.55 158.64-17.55 158.79-17.6 158.94-17.65 158.94-17.75L158.94-17.75Q158.94-17.85 158.79-18.15L158.79-18.15Q158.54-18.6 157.64-20.68 156.74-22.75 156.39-23.8L156.39-23.8Q155.89-25 155.61-25.8 155.34-26.6 155.19-26.9L155.19-26.9Q155.09-27.15 154.96-27.4 154.84-27.65 154.74-27.8 154.64-27.95 154.54-27.95L154.54-27.95Q154.39-27.95 154.21-27.2 154.04-26.45 153.94-26.05L153.94-26.05Q153.04-23.15 152.64-21.65L152.64-21.65Q152.44-20.9 152.06-19.83 151.69-18.75 151.54-18.35L151.54-18.35Q151.39-17.85 151.39-17.55L151.39-17.55Q151.39-17.25 151.84-17.25L151.84-17.25Q152.89-17.25 155.06-17.32 157.24-17.4 157.79-17.5L157.79-17.5Z" opacity="1" transform="matrix(1,0,0,1,0,0)" fill="#f3e004" class="wordmark-text-0" data-fill-palette-color="primary" id="text-0"></path></svg></g></svg></g><g transform="matrix(1,0,0,1,0,48.65481651526747)"><svg viewBox="0 0 192 26.239677855106706" height="26.239677855106706" width="192"><g transform="matrix(1,0,0,1,0,0)"><svg width="192" viewBox="1.6 -43.7 414.52 56.650000000000006" height="26.239677855106706" data-palette-color="#f3d306"><path d="M18.6-3.75Q20.3-3.75 20.3-2L20.3-2Q20.3-0.2 18.55-0.2L18.55-0.2 3.4-0.4Q1.85-0.45 1.85-2.2L1.85-2.2Q1.85-3.1 2.33-3.53 2.8-3.95 3.5-3.95L3.5-3.95 9.2-3.85Q10.1-18.25 10.1-31.85L10.1-31.85Q7.85-31.8 4.25-31.55L4.25-31.55 2.9-31.45Q2.4-31.45 2-31.95 1.6-32.45 1.6-33.25L1.6-33.25Q1.6-34.7 3.2-35L3.2-35Q4.1-35.15 7.05-35.3 10-35.45 12.8-35.45L12.8-35.45Q17-35.45 18.75-35.15L18.75-35.15Q19.5-35 19.9-34.68 20.3-34.35 20.3-33.45L20.3-33.45Q20.3-32.6 19.83-32.13 19.35-31.65 18.55-31.7L18.55-31.7Q16.6-31.85 13.95-31.9L13.95-31.9Q13.95-23.8 13.75-17.28 13.55-10.75 13-3.8L13-3.8 18.6-3.75ZM40.18-25.65Q43.53-25.65 46.31-24.23 49.08-22.8 50.73-19.93 52.38-17.05 52.38-12.85L52.38-12.85Q52.38-8.8 50.81-5.88 49.23-2.95 46.43-1.45 43.63 0.05 40.03 0.05L40.03 0.05Q37.08 0.05 34.68-0.8 32.28-1.65 31.13-2.5L31.13-2.5 30.98 2.55 30.78 9.6Q30.73 10.35 30.21 10.78 29.68 11.2 28.83 11.2L28.83 11.2Q27.93 11.2 27.46 10.73 26.98 10.25 26.98 9.45L26.98 9.45Q27.08 5.4 27.18 3.15L27.18 3.15 27.33-2.3Q27.48-8.25 27.48-17.55L27.48-17.55Q27.48-19.1 27.13-20.13 26.78-21.15 26.03-22.05L26.03-22.05Q25.98-22.1 25.76-22.33 25.53-22.55 25.53-23L25.53-23Q25.53-23.65 26.26-24.23 26.98-24.8 27.63-24.8L27.63-24.8Q27.98-24.8 28.26-24.63 28.53-24.45 28.58-24.4L28.58-24.4Q28.93-24.1 29.56-23.1 30.18-22.1 30.58-21.15L30.58-21.15Q31.78-22.9 34.23-24.28 36.68-25.65 40.18-25.65L40.18-25.65ZM39.98-3.15Q43.78-3.15 46.16-5.7 48.53-8.25 48.53-12.9L48.53-12.9Q48.53-17.75 46.08-20.05 43.63-22.35 40.03-22.35L40.03-22.35Q37.53-22.35 35.53-21.23 33.53-20.1 32.43-18.6 31.33-17.1 31.33-16.2L31.33-16.2Q31.33-10.7 31.28-6.75L31.28-6.75Q31.53-6.1 32.88-5.23 34.23-4.35 36.16-3.75 38.08-3.15 39.98-3.15L39.98-3.15ZM72.82 0.2Q68.72 0.2 65.74-1.58 62.77-3.35 61.24-6.28 59.72-9.2 59.72-12.65L59.72-12.65Q59.72-16.2 61.32-19.18 62.92-22.15 65.87-23.9 68.82-25.65 72.67-25.65L72.67-25.65Q76.07-25.65 78.77-24.28 81.47-22.9 82.97-20.45 84.47-18 84.47-14.85L84.47-14.85Q84.47-13.35 84.12-12.73 83.77-12.1 82.37-12.05L82.37-12.05 63.32-11.65Q63.32-9.75 64.47-7.75 65.62-5.75 67.74-4.4 69.87-3.05 72.67-3.05L72.67-3.05Q74.77-3.05 76.27-3.68 77.77-4.3 78.62-5.1 79.47-5.9 80.67-7.35L80.67-7.35Q81.02-7.8 81.77-7.8L81.77-7.8Q82.42-7.8 82.99-7.3 83.57-6.8 83.57-6.15L83.57-6.15Q83.57-5.65 83.17-5.1L83.17-5.1Q81.57-2.9 79.29-1.35 77.02 0.2 72.82 0.2L72.82 0.2ZM63.32-14.65L80.72-15.1Q81.22-15.1 81.22-15.8L81.22-15.8Q81.22-18.8 78.82-20.68 76.42-22.55 72.77-22.55L72.77-22.55Q70.02-22.55 67.87-21.15 65.72-19.75 64.52-17.85 63.32-15.95 63.32-14.65L63.32-14.65ZM100.4 12.95Q99.55 12.95 98.98 12.43 98.4 11.9 98.4 11.15L98.4 11.15Q98.4 10.85 98.55 10.45L98.55 10.45Q101.3 3.65 103.25-1.85L103.25-1.85Q101.2-3.15 98.9-6.75 96.6-10.35 94.73-14.88 92.85-19.4 91.85-23.25L91.85-23.25Q91.75-23.55 91.75-23.9L91.75-23.9Q91.75-24.5 92.25-24.95 92.75-25.4 93.7-25.4L93.7-25.4Q94.45-25.4 94.75-25.1 95.05-24.8 95.25-24.05L95.25-24.05Q100.35-8.35 104.55-5.6L104.55-5.6Q107.6-16.4 109.6-24.25L109.6-24.25Q109.8-24.95 110.15-25.25 110.5-25.55 111.25-25.55L111.25-25.55Q113.1-25.55 113.4-24.05L113.4-24.05Q113.45-23.85 113.35-23.5L113.35-23.5Q111.65-16.5 110.58-12.65 109.5-8.8 107.9-4.15L107.9-4.15Q106.75-0.85 105.03 3.93 103.3 8.7 102.15 11.6L102.15 11.6Q101.9 12.3 101.48 12.63 101.05 12.95 100.4 12.95L100.4 12.95ZM144.73-3.25Q145.43-3.15 145.78-2.85 146.13-2.55 146.13-1.75L146.13-1.75Q146.13-1 145.76-0.55 145.38-0.1 144.73-0.1L144.73-0.1Q142.68-0.1 141.71-0.75 140.73-1.4 140.03-3.2L140.03-3.2Q137.78 0.45 132.03 0.45L132.03 0.45Q127.98 0.45 125.48-1.35 122.98-3.15 121.91-5.93 120.83-8.7 120.83-11.8L120.83-11.8Q120.83-15.15 122.18-18.1 123.53-21.05 126.16-22.85 128.78-24.65 132.43-24.65L132.43-24.65Q134.93-24.65 136.78-23.65 138.63-22.65 139.68-20.85L139.68-20.85 139.88-22.5Q139.98-24.35 141.58-24.35L141.58-24.35Q142.58-24.35 143.11-23.88 143.63-23.4 143.53-22.75L143.53-22.75 143.38-21.5Q143.03-19.4 142.88-17.15L142.88-17.15Q142.73-15.25 142.73-12.05L142.73-12.05 142.73-8.6Q142.73-6.45 142.86-5.43 142.98-4.4 143.38-3.85 143.78-3.3 144.73-3.25L144.73-3.25ZM138.93-8.65Q138.98-11 138.98-14.7L138.98-14.7Q138.98-17.15 137.93-18.68 136.88-20.2 135.38-20.85 133.88-21.5 132.53-21.5L132.53-21.5Q129.88-21.5 128.11-20 126.33-18.5 125.51-16.25 124.68-14 124.68-11.8L124.68-11.8Q124.68-8.3 126.41-5.53 128.13-2.75 132.08-2.75L132.08-2.75Q135.03-2.75 136.96-4.28 138.88-5.8 138.93-8.65L138.93-8.65ZM163.37 0.25Q159.97 0.25 157.57-1.43 155.17-3.1 153.82-5.7L153.82-5.7Q153.47-6.4 153.47-6.65L153.47-6.65Q153.47-7.35 154.09-7.88 154.72-8.4 155.47-8.4L155.47-8.4Q155.97-8.4 156.24-8.13 156.52-7.85 157.02-7.15L157.02-7.15Q158.27-5.25 159.67-4.13 161.07-3 163.37-3L163.37-3Q165.52-3 166.94-4.05 168.37-5.1 168.37-6.7L168.37-6.7Q168.37-7.85 167.59-8.65 166.82-9.45 165.69-9.95 164.57-10.45 162.47-11.2L162.47-11.2Q159.82-12.15 158.19-12.93 156.57-13.7 155.42-15.13 154.27-16.55 154.27-18.75L154.27-18.75Q154.27-20.7 155.34-22.38 156.42-24.05 158.42-25.05 160.42-26.05 163.02-26.05L163.02-26.05Q165.62-26.05 167.62-25.05 169.62-24.05 170.72-22.4 171.82-20.75 171.82-18.75L171.82-18.75Q171.82-17.75 171.44-17.3 171.07-16.85 170.12-16.85L170.12-16.85Q169.12-16.85 168.79-17.23 168.47-17.6 168.42-18.2L168.42-18.2Q168.22-20.55 166.77-21.68 165.32-22.8 163.02-22.8L163.02-22.8Q160.32-22.8 159.19-21.53 158.07-20.25 158.07-18.8L158.07-18.8Q158.07-17.1 159.54-16.18 161.02-15.25 164.12-14.15L164.12-14.15Q166.77-13.2 168.37-12.4 169.97-11.6 171.09-10.2 172.22-8.8 172.22-6.7L172.22-6.7Q172.22-3.45 169.67-1.6 167.12 0.25 163.37 0.25L163.37 0.25ZM211.13 0.2Q207.63 0.2 204.73-1.2 201.83-2.6 200.08-5.5 198.33-8.4 198.33-12.7L198.33-12.7Q198.33-16.6 199.93-19.45 201.53-22.3 204.46-23.83 207.38-25.35 211.28-25.35L211.28-25.35Q214.08-25.35 216.21-24.53 218.33-23.7 219.58-22.4L219.58-22.4 219.58-23.45Q219.78-31.3 219.91-34.9 220.03-38.5 220.38-42.1L220.38-42.1Q220.48-42.8 220.98-43.25 221.48-43.7 222.28-43.7L222.28-43.7Q223.18-43.7 223.73-43.23 224.28-42.75 224.23-42L224.23-42Q223.88-38.35 223.58-29.45 223.28-20.55 223.28-13.4L223.28-13.4Q223.28-6.1 223.63-5L223.63-5Q223.93-3.9 224.36-3.18 224.78-2.45 225.28-2.45L225.28-2.45Q225.43-2.45 225.43-1.9L225.43-1.9Q225.43-1.15 224.78-0.55 224.13 0.05 223.33 0.05L223.33 0.05Q222.78 0.05 222.38-0.2L222.38-0.2Q221.68-0.6 220.96-1.53 220.23-2.45 219.98-4.1L219.98-4.1Q218.73-2.1 216.38-0.95 214.03 0.2 211.13 0.2L211.13 0.2ZM211.03-3.2Q213.18-3.2 215.11-4.13 217.03-5.05 218.23-6.63 219.43-8.2 219.43-10.05L219.43-10.05Q219.43-12.25 219.48-13.55L219.48-13.55 219.53-17.7Q218.68-19.3 216.43-20.65 214.18-22 211.28-22L211.28-22Q207.13-22 204.63-19.5 202.13-17 202.13-12.55L202.13-12.55Q202.13-9.35 203.46-7.25 204.78-5.15 206.83-4.17 208.88-3.2 211.03-3.2L211.03-3.2ZM237.62-28.3Q236.32-28.3 235.42-29.18 234.52-30.05 234.52-31.4L234.52-31.4Q234.52-32.75 235.42-33.63 236.32-34.5 237.72-34.5L237.72-34.5Q239.07-34.5 239.94-33.65 240.82-32.8 240.82-31.45L240.82-31.45Q240.82-30.1 239.89-29.2 238.97-28.3 237.62-28.3L237.62-28.3ZM236.87-0.3Q235.97-0.3 235.44-0.75 234.92-1.2 234.92-1.95L234.92-1.95 235.42-23.2Q235.42-24.05 235.94-24.5 236.47-24.95 237.37-24.95L237.37-24.95Q238.27-24.95 238.79-24.5 239.32-24.05 239.32-23.15L239.32-23.15 238.82-1.95Q238.77-1.15 238.24-0.73 237.72-0.3 236.87-0.3L236.87-0.3ZM297.93-17.75Q299.88-17.75 299.88-16.05L299.88-16.05Q299.88-15.2 299.38-14.73 298.88-14.25 298.03-14.3L298.03-14.3 296.73-14.35Q296.48-7.4 293.28-3.73 290.08-0.05 283.83-0.05L283.83-0.05Q278.78-0.05 274.91-2.4 271.03-4.75 268.96-8.7 266.88-12.65 266.88-17.35L266.88-17.35Q266.88-22.05 268.98-25.98 271.08-29.9 274.83-32.2 278.58-34.5 283.28-34.5L283.28-34.5Q286.83-34.5 289.41-33.27 291.98-32.05 293.58-30.2L293.58-30.2 293.58-31.2Q293.58-32.05 294.13-32.52 294.68-33 295.58-33L295.58-33Q296.43-33 296.96-32.6 297.48-32.2 297.48-31.65L297.48-31.65Q297.48-28.1 296.93-26.95L296.93-26.95Q296.43-25.85 294.98-25.85L294.98-25.85Q294.43-25.85 293.98-26.08 293.53-26.3 292.83-26.95L292.83-26.95Q291.33-28.3 290.23-29.1 289.13-29.9 287.61-30.43 286.08-30.95 283.98-30.95L283.98-30.95Q280.03-30.95 277.03-29.1 274.03-27.25 272.38-24.1 270.73-20.95 270.73-17.2L270.73-17.2Q270.73-13.45 272.38-10.33 274.03-7.2 277.01-5.4 279.98-3.6 283.78-3.6L283.78-3.6Q288.33-3.6 290.56-6.3 292.78-9 292.98-14.3L292.98-14.3 285.93-14.45Q284.08-14.5 284.08-16.2L284.08-16.2Q284.08-17.1 284.66-17.57 285.23-18.05 286.03-18L286.03-18 297.93-17.75ZM330.47-3.25Q331.17-3.15 331.52-2.85 331.87-2.55 331.87-1.75L331.87-1.75Q331.87-1 331.49-0.55 331.12-0.1 330.47-0.1L330.47-0.1Q328.42-0.1 327.44-0.75 326.47-1.4 325.77-3.2L325.77-3.2Q323.52 0.45 317.77 0.45L317.77 0.45Q313.72 0.45 311.22-1.35 308.72-3.15 307.64-5.93 306.57-8.7 306.57-11.8L306.57-11.8Q306.57-15.15 307.92-18.1 309.27-21.05 311.89-22.85 314.52-24.65 318.17-24.65L318.17-24.65Q320.67-24.65 322.52-23.65 324.37-22.65 325.42-20.85L325.42-20.85 325.62-22.5Q325.72-24.35 327.32-24.35L327.32-24.35Q328.32-24.35 328.84-23.88 329.37-23.4 329.27-22.75L329.27-22.75 329.12-21.5Q328.77-19.4 328.62-17.15L328.62-17.15Q328.47-15.25 328.47-12.05L328.47-12.05 328.47-8.6Q328.47-6.45 328.59-5.43 328.72-4.4 329.12-3.85 329.52-3.3 330.47-3.25L330.47-3.25ZM324.67-8.65Q324.72-11 324.72-14.7L324.72-14.7Q324.72-17.15 323.67-18.68 322.62-20.2 321.12-20.85 319.62-21.5 318.27-21.5L318.27-21.5Q315.62-21.5 313.84-20 312.07-18.5 311.24-16.25 310.42-14 310.42-11.8L310.42-11.8Q310.42-8.3 312.14-5.53 313.87-2.75 317.82-2.75L317.82-2.75Q320.77-2.75 322.69-4.28 324.62-5.8 324.67-8.65L324.67-8.65ZM349.2-0.1Q347.6-0.1 346.08-2.33 344.55-4.55 343.3-8.45L343.3-8.45Q342.1-12.1 341.33-16.5 340.55-20.9 340.55-23.6L340.55-23.6Q340.55-24.75 340.9-25.3 341.25-25.85 342.45-25.85L342.45-25.85Q344.2-25.85 344.3-24.3L344.3-24.3Q344.6-20.15 344.98-17.63 345.35-15.1 346.45-10.95L346.45-10.95Q347.35-7.6 348.05-5.98 348.75-4.35 349.55-4.35L349.55-4.35Q350.15-4.35 351.38-8.5 352.6-12.65 354.25-19.25L354.25-19.25Q354.55-20.3 355-20.8 355.45-21.3 356.3-21.3L356.3-21.3Q357.15-21.3 357.55-20.83 357.95-20.35 358.35-19.25L358.35-19.25Q358.9-17.7 360.2-13.4L360.2-13.4Q361.55-8.9 362.43-6.73 363.3-4.55 364.15-4.55L364.15-4.55Q364.85-4.55 365.43-6.23 366-7.9 366.75-11.3L366.75-11.3Q367.75-15.8 368.05-18 368.35-20.2 368.55-24.15L368.55-24.15Q368.6-24.9 368.95-25.35 369.3-25.8 370.4-25.8L370.4-25.8Q371.6-25.8 371.95-25.2 372.3-24.6 372.3-23.3L372.3-23.3Q372.3-20.8 371.65-16.57 371-12.35 370.05-8.8L370.05-8.8Q368.95-4.7 367.55-2.4 366.15-0.1 364.55-0.1L364.55-0.1Q363-0.1 361.43-2.2 359.85-4.3 358.53-7.88 357.2-11.45 356.35-15.85L356.35-15.85Q355.4-9.1 353.48-4.6 351.55-0.1 349.2-0.1L349.2-0.1ZM386.08-28.3Q384.78-28.3 383.88-29.18 382.98-30.05 382.98-31.4L382.98-31.4Q382.98-32.75 383.88-33.63 384.78-34.5 386.18-34.5L386.18-34.5Q387.53-34.5 388.41-33.65 389.28-32.8 389.28-31.45L389.28-31.45Q389.28-30.1 388.36-29.2 387.43-28.3 386.08-28.3L386.08-28.3ZM385.33-0.3Q384.43-0.3 383.91-0.75 383.38-1.2 383.38-1.95L383.38-1.95 383.88-23.2Q383.88-24.05 384.41-24.5 384.93-24.95 385.83-24.95L385.83-24.95Q386.73-24.95 387.26-24.5 387.78-24.05 387.78-23.15L387.78-23.15 387.28-1.95Q387.23-1.15 386.71-0.73 386.18-0.3 385.33-0.3L385.33-0.3ZM407.27 0.25Q403.87 0.25 401.47-1.43 399.07-3.1 397.72-5.7L397.72-5.7Q397.37-6.4 397.37-6.65L397.37-6.65Q397.37-7.35 397.99-7.88 398.62-8.4 399.37-8.4L399.37-8.4Q399.87-8.4 400.14-8.13 400.42-7.85 400.92-7.15L400.92-7.15Q402.17-5.25 403.57-4.13 404.97-3 407.27-3L407.27-3Q409.42-3 410.84-4.05 412.27-5.1 412.27-6.7L412.27-6.7Q412.27-7.85 411.49-8.65 410.72-9.45 409.59-9.95 408.47-10.45 406.37-11.2L406.37-11.2Q403.72-12.15 402.09-12.93 400.47-13.7 399.32-15.13 398.17-16.55 398.17-18.75L398.17-18.75Q398.17-20.7 399.24-22.38 400.32-24.05 402.32-25.05 404.32-26.05 406.92-26.05L406.92-26.05Q409.52-26.05 411.52-25.05 413.52-24.05 414.62-22.4 415.72-20.75 415.72-18.75L415.72-18.75Q415.72-17.75 415.34-17.3 414.97-16.85 414.02-16.85L414.02-16.85Q413.02-16.85 412.69-17.23 412.37-17.6 412.32-18.2L412.32-18.2Q412.12-20.55 410.67-21.68 409.22-22.8 406.92-22.8L406.92-22.8Q404.22-22.8 403.09-21.53 401.97-20.25 401.97-18.8L401.97-18.8Q401.97-17.1 403.44-16.18 404.92-15.25 408.02-14.15L408.02-14.15Q410.67-13.2 412.27-12.4 413.87-11.6 414.99-10.2 416.12-8.8 416.12-6.7L416.12-6.7Q416.12-3.45 413.57-1.6 411.02 0.25 407.27 0.25L407.27 0.25Z" opacity="1" transform="matrix(1,0,0,1,0,0)" fill="#f3d306" class="slogan-text-1" data-fill-palette-color="secondary" id="text-1"></path></svg></g></svg></g></svg></g></svg></g><g></g></svg></g></svg></g></svg></g></svg></g><defs></defs></svg><rect width="320" height="360" fill="none" stroke="none" visibility="hidden"></rect></g></svg></g></svg>